<?xml version="1.0" encoding="utf-8"?>
<!-- Generator: Adobe Illustrator 26.0.1, SVG Export Plug-In . SVG Version: 6.00 Build 0)  -->
<svg version="1.1" id="Layer_1" xmlns="http://www.w3.org/2000/svg" xmlns:xlink="http://www.w3.org/1999/xlink" x="0px" y="0px"
	 viewBox="0 0 1800 50" style="enable-background:new 0 0 400.4 43.7;" xml:space="preserve">
<g>
	<path d="M0,35.9h6.6V7.8H0v-7h21.1v7h-6.6v28.1h6.6v7H0V35.9z"/>
	<path d="M26.3,13.1h8l6.9,24.2h1.1l6.9-24.2h8l-9.5,29.7h-12L26.3,13.1z"/>
	<path d="M61.7,28.4v-1c0-9.6,6.7-15.2,15.6-15.2s15.6,5.6,15.6,15.2v1c0,9.6-6.7,15.2-15.6,15.2S61.7,38,61.7,28.4z M85.3,28.2
		v-0.6c0-5.6-3.4-8.7-8-8.7s-8,3.1-8,8.7v0.6c0,5.6,3.4,8.7,8,8.7S85.3,33.8,85.3,28.2z"/>
	<path d="M115.9,29.1v-1.7h7.8v1.7c0,5,3.3,7.6,8.7,7.6c5.4,0,8.1-2.4,8.1-5.8c0-3.5-3.1-4.7-8.5-5.9l-1.4-0.3
		c-8.7-1.9-13.8-4.9-13.8-12.5S122.7,0,131.7,0s15.5,4.6,15.5,13.7v1.8h-7.8v-1.8c0-4.8-2.9-6.7-7.7-6.7s-7,1.9-7,5s2.3,4.6,7.4,5.7
		l1.4,0.3c8.9,1.9,14.9,5,14.9,12.7c0,7.7-6.2,13-15.9,13S115.9,38.3,115.9,29.1z"/>
	<path d="M154.5,28.4v-0.8c0-9.7,6.8-15.3,15.4-15.3c8.5,0,13.5,4.9,14.8,11.5l-7.3,1.6c-0.5-3.6-2.7-6.4-7.3-6.4s-8,3.1-8,8.7v0.6
		c0,5.6,3.5,8.7,8,8.7s6.8-2.6,7.4-6.4l7.3,1.7c-1.6,6.4-6.4,11.4-14.9,11.4C161.3,43.7,154.5,38.1,154.5,28.4z"/>
	<path d="M192.6,0.8h7.6v15.9h1.1c1-1.9,3.3-4.1,8.6-4.1c7,0,11.6,5.1,11.6,12.5v17.8h-7.6V25.7c0-4.5-2.3-6.7-6.4-6.7
		c-4.6,0-7.3,3.2-7.3,8.8v15.1h-7.6V0.8z"/>
	<path d="M229.6,28.4v-1c0-9.6,6.7-15.2,15.6-15.2c8.9,0,15.6,5.6,15.6,15.2v1c0,9.6-6.7,15.2-15.6,15.2
		C236.3,43.7,229.6,38,229.6,28.4z M253.2,28.2v-0.6c0-5.6-3.4-8.7-8-8.7s-8,3.1-8,8.7v0.6c0,5.6,3.4,8.7,8,8.7
		C249.8,36.9,253.2,33.8,253.2,28.2z"/>
	<path d="M269,30.8V13.1h7.6v17.2c0,4.5,2.3,6.7,6.4,6.7c4.6,0,7.3-3.2,7.3-8.8V13.1h7.6v29.7h-7.4v-3.9h-1.1c-1,2-3.4,4.4-8.7,4.4
		C273.7,43.3,269,38.2,269,30.8z"/>
	<path d="M312.5,36.1V19.3h-7.4v-6.2h7.4V3.8h7.6v9.2h8.2v6.2h-8.2v15.5c0,1.2,0.6,1.8,1.7,1.8h5.8v6.2h-8.4
		C315.2,42.8,312.5,40.2,312.5,36.1z"/>
	<path d="M334.1,28.3v-0.7c0-9.4,6-15.4,14.9-15.4c8.8,0,14.5,6.2,14.5,15.4v2.6h-21.6c0.2,4.1,3.4,6.9,7.6,6.9s5.9-2.2,7-4.4
		l6.2,3.2c-1.7,3.2-5.2,7.8-13.4,7.8C340.1,43.7,334.1,37.7,334.1,28.3z M355.7,24.5c-0.4-3.4-2.9-5.7-6.8-5.7
		c-4.1,0-6.5,2.3-7.1,5.7H355.7z"/>
	<path d="M371.6,13.1h7.4V17h1.1c1-2,3.4-4.4,8.7-4.4c7,0,11.6,5.1,11.6,12.5v17.8h-7.6V25.7c0-4.5-2.3-6.7-6.4-6.7
		c-4.6,0-7.3,3.2-7.3,8.8v15.1h-7.6V13.1z"/>
</g>
<g>
</g>
<g>
</g>
<g>
</g>
<g>
</g>
<g>
</g>
<g>
</g>
</svg>
